<svg xmlns="http://www.w3.org/2000/svg" width="1024" height="1024" viewBox="0 0 1024 1024" version="1.1">
	<path d="M 488.102 226.003 L 477.705 226.762 454.071 250.631 C 441.073 263.759, 393.562 311.850, 348.492 357.500 C 303.422 403.150, 256.417 450.755, 244.038 463.289 C 231.658 475.823, 220.976 487.073, 220.300 488.289 C 218.960 490.700, 218.471 534.752, 219.647 547.196 L 220.279 553.892 272.889 606.196 C 301.824 634.963, 356.774 689.610, 394.999 727.633 C 433.225 765.656, 467.511 799.454, 471.192 802.739 C 479.471 810.128, 478.715 810.001, 514.390 809.996 C 538.910 809.993, 541.787 809.817, 544.500 808.160 C 546.150 807.153, 569.537 783.867, 596.471 756.414 C 623.405 728.961, 680.769 670.825, 723.946 627.223 C 767.124 583.621, 802.825 547.278, 803.282 546.461 C 804.313 544.619, 804.185 496.825, 803.126 488.184 L 802.352 481.868 749.426 429.742 C 720.317 401.073, 675.350 356.661, 649.500 331.049 C 623.650 305.438, 589.103 271.212, 572.729 254.991 L 542.959 225.500 520.729 225.373 C 508.503 225.303, 493.821 225.586, 488.102 226.003 M 475.284 352.164 C 455.603 372.133, 410.813 417.431, 375.750 452.826 C 335.378 493.580, 312 517.893, 312 519.123 C 312 520.367, 338.872 547.737, 386.774 595.283 C 511.184 718.768, 510.724 718.320, 512.527 717.628 C 513.427 717.283, 514.521 717, 514.959 717 C 515.396 717, 536.160 696.188, 561.100 670.750 C 586.040 645.313, 630.308 600.309, 659.473 570.742 C 688.638 541.175, 712.618 516.635, 712.762 516.207 C 712.906 515.780, 692.884 495.421, 668.268 470.965 C 643.653 446.509, 598.640 401.750, 568.240 371.500 C 537.839 341.250, 512.539 316.355, 512.018 316.178 C 511.496 316.001, 494.966 332.195, 475.284 352.164" stroke="none" fill="black" fill-rule="evenodd"/>
</svg>